<svg xmlns="http://www.w3.org/2000/svg" viewBox="0 0 128 128" width="128" height="128" fill="none">
  <title>RAID Controller Card</title>
  <rect x="18" y="30" width="88" height="44" rx="6" fill="#111"/>
  <rect x="10" y="26" width="8" height="60" rx="2" fill="#111"/>
  <rect x="34" y="78" width="56" height="10" rx="2" fill="#111"/>
  <rect x="102" y="44" width="14" height="16" rx="2" fill="#111"/>

  <rect x="70" y="40" width="24" height="24" rx="3" fill="#fff"/>
  <rect x="74" y="44" width="16" height="16" rx="2" fill="#111"/>

  <g fill="#fff">
    <rect x="30" y="42" width="6" height="16" rx="2"/>
    <rect x="40" y="42" width="6" height="16" rx="2"/>
    <rect x="50" y="42" width="6" height="16" rx="2"/>
    <rect x="60" y="42" width="6" height="16" rx="2"/>
  </g>

  <g fill="#fff">
    <rect x="70" y="36" width="2" height="4"/>
    <rect x="76" y="36" width="2" height="4"/>
    <rect x="82" y="36" width="2" height="4"/>
    <rect x="88" y="36" width="2" height="4"/>

    <rect x="70" y="64" width="2" height="4"/>
    <rect x="76" y="64" width="2" height="4"/>
    <rect x="82" y="64" width="2" height="4"/>
    <rect x="88" y="64" width="2" height="4"/>

    <rect x="66" y="40" width="4" height="2"/>
    <rect x="66" y="46" width="4" height="2"/>
    <rect x="66" y="52" width="4" height="2"/>
    <rect x="66" y="58" width="4" height="2"/>

    <rect x="94" y="40" width="4" height="2"/>
    <rect x="94" y="46" width="4" height="2"/>
    <rect x="94" y="52" width="4" height="2"/>
    <rect x="94" y="58" width="4" height="2"/>
  </g>
</svg>
